<svg width="62" height="39" viewBox="0 0 62 39" fill="none" xmlns="http://www.w3.org/2000/svg">
<path id="Union" fill-rule="evenodd" clip-rule="evenodd" d="M5.62395 30.8957C5.09572 28.9148 4.8147 26.8375 4.8147 24.6966C4.8147 11.057 16.2204 0 30.29 0C44.3596 0 55.7652 11.057 55.7652 24.6966C55.7652 26.6555 55.53 28.5612 55.0853 30.3885C57.3508 31.9132 59.4461 33.0676 61.8858 34.1886C49.9333 34.7346 46.7469 34.0433 44.4728 27.0899C41.0402 31.3465 38.9337 31.5619 36.5247 31.2156C31.5608 29.1639 30.169 26.7187 30.4575 18.8385C29.5477 19.7407 28.7575 20.562 27.999 21.3503C25.6367 23.8057 23.5811 25.9421 19.1725 29.2134L16.8669 26.8472C9.53837 32.7837 5.79653 34.5875 0 34.4313C2.1587 33.2074 4.02619 32.0738 5.81095 30.8957H5.62395ZM52.8721 23.895C52.8721 25.4593 52.7029 26.9854 52.3811 28.4568C50.0943 26.738 47.4931 24.5916 44.1694 21.7508L40.9538 24.7237L30.8215 14.3487L20.6286 24.7237L17.5343 21.9328C13.8978 24.9511 11.1069 27.1822 8.35972 29.1444C7.9328 27.4627 7.70636 25.7045 7.70636 23.895C7.70636 11.8041 17.8171 2.00242 30.2892 2.00242C42.7614 2.00242 52.8721 11.8041 52.8721 23.895ZM37.2531 14.3487C37.2531 15.3939 37.0208 16.1505 36.6016 16.6976C36.5821 16.6767 36.5618 16.6561 36.5407 16.6358L32.0131 12.2847C31.4495 11.7431 30.5588 11.7431 29.9952 12.2847L25.4676 16.6358C25.4433 16.6591 25.4201 16.6829 25.3979 16.7071C24.9124 16.1592 24.6333 15.3999 24.6333 14.3487C24.6333 10.8639 27.4583 8.03881 30.9432 8.03881C34.4281 8.03881 37.2531 10.8639 37.2531 14.3487ZM24.5104 28.3028L24.5103 28.3034L24.5099 28.3026C24.347 28.2333 24.0783 28.1904 23.7849 28.1436C23.3105 28.0679 22.7714 27.9819 22.5094 27.7573C22.9733 27.5834 24.2129 27.8527 24.4808 28.2476C24.2855 27.871 24.2572 27.655 24.2171 27.3493L24.2069 27.2719C24.5091 27.5741 24.5515 28.1309 24.5108 28.3014L24.5116 28.3034L24.5104 28.3028ZM26.8172 27.5146C25.697 27.5864 25.1866 27.7568 24.5116 28.3034C25.543 28.1519 25.8915 27.9942 26.8172 27.5146ZM24.5116 28.3034C25.3502 28.7558 25.543 29.0314 25.7251 29.4561C25.5891 29.3609 25.4707 29.2859 25.3649 29.2189C24.9987 28.987 24.7836 28.8506 24.5116 28.3034ZM24.5116 28.3034C23.5498 31.1682 23.1944 32.2408 23.0555 32.7363C25.1152 32.4077 26.56 31.813 28.5767 30.6089C31.4276 32.5075 33.1763 33.3004 36.6461 34.0672H11.5277C13.6548 33.4331 14.8209 33.0149 16.5635 31.4583C17.859 32.3319 18.8724 32.6254 20.9319 32.9751C21.3169 32.9454 21.6796 32.9121 22.0241 32.874C22.9722 31.6594 23.5202 30.6011 24.5116 28.3034ZM24.5116 28.3034C24.3236 28.3901 24.1701 28.4562 24.0379 28.5131L24.0378 28.5131C23.6154 28.695 23.4107 28.7831 22.9948 29.1528C23.2375 28.6067 23.3914 28.3751 24.5116 28.3034ZM3.95638 35.6425C3.29391 35.6425 2.75688 36.1796 2.75688 36.842C2.75688 37.5045 3.29391 38.0416 3.95638 38.0416H56.6205C57.283 38.0416 57.82 37.5045 57.82 36.842C57.82 36.1796 57.283 35.6425 56.6205 35.6425H3.95638Z" fill="white"/>
</svg>
